<svg width="20" height="20" viewBox="0 0 20 20" xmlns="http://www.w3.org/2000/svg">
  <path d="M19.6 10.23c0-.82-.1-1.42-.25-2.05H10v3.72h5.5c-.15.96-.74 2.31-2.04 3.22v2.45h3.16c1.89-1.73 2.98-4.3 2.98-7.34z" fill="#4285F4"/>
  <path d="M10 20c2.7 0 4.96-.89 6.62-2.41l-3.16-2.45c-.86.58-1.97.93-3.46.93-2.65 0-4.9-1.8-5.7-4.22H1.07v2.52C2.72 17.75 6.09 20 10 20z" fill="#34A853"/>
  <path d="M4.3 11.85c-.22-.58-.35-1.21-.35-1.85s.13-1.27.35-1.85V5.63H1.07C.39 6.99 0 8.45 0 10s.39 3.01 1.07 4.37l3.23-2.52z" fill="#FBBC05"/>
  <path d="M10 3.95c1.44 0 2.48.62 3.04 1.14l2.25-2.25C13.96.89 12.7 0 10 0 6.09 0 2.72 2.25 1.07 5.63l3.23 2.52C5.1 5.75 7.35 3.95 10 3.95z" fill="#EA4335"/>
</svg>